<svg class="logo" xmlns="http://www.w3.org/2000/svg" width="1921.5" height="1921.5" viewBox="0 0 1921.5 1921.5">
    <defs>
        <style>
        .c {
            fill: #c39898;
        }

        .d {
            fill: #fff;
        }
        </style>
    </defs>
    <rect id="b" class="d" x=".5" y=".5" width="1921" height="1921" rx="383.45" ry="383.45"/>
    <g>
        <path class="c" d="M1620,853.03l-250.45-179.67c.7-3.78,1.11-7.65,1.11-11.62v-310.24c0-35.19-28.63-63.82-63.82-63.82h-92.71c-35.19,0-63.82,28.63-63.82,63.82v164.59l-175.95-126.22c-3.39-2.43-7.2-3.77-11.08-4.19-.92-.12-1.85-.18-2.78-.19-.93,0-1.86.07-2.78.19-3.87.42-7.69,1.76-11.08,4.19l-645.64,463.16c-10.55,7.57-12.97,22.26-5.4,32.81,4.59,6.4,11.81,9.81,19.12,9.81,4.75,0,9.54-1.43,13.68-4.41l632.09-453.44,189.82,136.17,47.02,33.73,98.74,70.83,48.34,34.68,248.17,178.03c4.15,2.98,8.94,4.41,13.68,4.41,7.32,0,14.53-3.41,19.12-9.81,7.57-10.55,5.15-25.24-5.4-32.81ZM1197.34,549.82v-198.33c0-9.26,7.54-16.79,16.79-16.79h92.71c9.26,0,16.79,7.53,16.79,16.79v288.93l-126.3-90.6Z"/>
        <g>
        <path class="c" d="M1550.31,960.31c4.91-.49,9.15.92,12.71,4.24,3.56,3.32,5.34,7.43,5.34,12.34s-1.6,8.6-4.79,11.79c-3.2,3.2-7.13,4.79-11.79,4.79-1.97,0-4.12-.12-6.45-.37-2.34-.24-4.73-.49-7.19-.74h-.74c-1.72,0-2.58.98-2.58,2.95v140.76c0,21.37-3.81,39.92-11.42,55.64-7.62,15.72-18.49,27.82-32.61,36.3-14.13,8.48-30.9,12.71-50.3,12.71s-36.18-4.24-50.3-12.71c-14.13-8.48-25-20.57-32.61-36.3-7.62-15.72-11.42-34.27-11.42-55.64v-140.76c0-1.96-.86-2.95-2.58-2.95-2.46,0-4.85.18-7.19.55-2.34.37-4.73.55-7.19.55-4.67,0-8.6-1.59-11.79-4.79-3.2-3.19-4.79-7.12-4.79-11.79,0-4.91,1.78-9.03,5.34-12.34,3.56-3.32,7.8-4.73,12.71-4.24,7.12.74,13.27,1.29,18.42,1.66,5.16.37,10.19.55,15.11.55s10.01-.18,15.29-.55c5.28-.37,11.36-.92,18.24-1.66,4.91-.49,9.09.92,12.53,4.24,3.44,3.32,5.16,7.43,5.16,12.34s-1.72,8.97-5.16,12.16c-3.44,3.2-7.62,4.67-12.53,4.42-2.46-.49-5.04-.79-7.74-.92-2.71-.12-5.41-.31-8.11-.55h-.74c-1.72,0-2.58.98-2.58,2.95v141.5c0,3.68.31,8.48.92,14.37.61,5.9,1.96,12.22,4.05,18.98,2.08,6.76,5.4,13.14,9.95,19.16,4.54,6.02,10.62,10.93,18.24,14.74,7.61,3.81,17.19,5.71,28.74,5.71s21.49-1.9,29.11-5.71c7.61-3.81,13.63-8.78,18.06-14.92,4.42-6.14,7.67-12.59,9.76-19.35,2.08-6.75,3.44-13.08,4.05-18.98.61-5.9.92-10.56.92-14v-141.5c0-1.96-.86-2.95-2.58-2.95-2.95,0-5.77.13-8.48.37-2.71.25-5.41.62-8.11,1.11-4.67.25-8.79-1.23-12.34-4.42-3.56-3.19-5.34-7.24-5.34-12.16s1.78-9.03,5.34-12.34c3.56-3.32,7.67-4.73,12.34-4.24,7.12.74,13.32,1.29,18.61,1.66,5.28.37,10.25.55,14.92.55,4.91,0,10.01-.18,15.29-.55,5.28-.37,11.36-.92,18.24-1.66Z"/>
        <path class="c" d="M1577.95,1560.59c4.66,0,8.6,1.54,11.79,4.61,3.19,3.08,4.79,7.06,4.79,11.98s-1.79,8.96-5.34,12.16c-3.56,3.19-7.8,4.66-12.71,4.42-14-1.47-25.18-2.21-33.53-2.21-9.09,0-20.27.74-33.53,2.21-4.92.24-9.09-1.23-12.53-4.42-3.44-3.2-5.16-7.24-5.16-12.16s1.53-8.9,4.61-11.98,6.94-4.61,11.61-4.61c2.21,0,4.61.13,7.19.37,2.58.25,5.1.62,7.55,1.11,2.95,0,3.81-1.23,2.58-3.69l-17.32-38.69c-.74-1.72-1.97-2.58-3.68-2.58h-127.5c-1.47,0-2.71.86-3.68,2.58l-17.32,38.69c-.25.5-.37.99-.37,1.47,0,1.47.98,2.21,2.95,2.21,2.7-.49,5.28-.86,7.74-1.11,2.45-.24,4.79-.37,7-.37,4.66,0,8.53,1.54,11.61,4.61,3.07,3.08,4.61,7.06,4.61,11.98s-1.72,8.96-5.16,12.16c-3.44,3.19-7.62,4.66-12.53,4.42-14.25-1.47-25.43-2.21-33.53-2.21-9.34,0-20.51.74-33.53,2.21-4.92.24-9.15-1.23-12.71-4.42-3.56-3.2-5.34-7.24-5.34-12.16s1.6-8.9,4.79-11.98c3.19-3.07,7.12-4.61,11.79-4.61,2.45,0,4.79.13,7,.37,2.21.25,4.42.5,6.63.74h.74c1.23,0,2.33-.74,3.32-2.21l106.86-237.68c2.45-5.65,6.75-8.48,12.9-8.48s10.07,2.83,12.53,8.48l107.6,237.68c.98,1.47,2.08,2.21,3.32,2.21,2.45,0,4.85-.18,7.19-.55,2.33-.37,4.61-.55,6.82-.55ZM1442.71,1374.5c-.25-1.47-.98-2.21-2.21-2.21-.74,0-1.47.74-2.21,2.21l-48.27,107.6c-.25.5-.37.98-.37,1.47,0,1.72.98,2.58,2.95,2.58h95.81c2.95,0,3.81-1.35,2.58-4.05l-48.27-107.6Z"/>
        <path class="c" d="M1238.97,1207.57c4.91-.49,9.15.92,12.71,4.24,3.56,3.32,5.34,7.43,5.34,12.34s-1.78,8.96-5.34,12.16c-3.56,3.19-7.8,4.66-12.71,4.42-7.37-.74-13.88-1.29-19.53-1.66-5.65-.37-11.18-.55-16.58-.55s-10.44.18-15.85.55c-5.41.37-11.67.92-18.79,1.66-4.67.24-8.79-1.23-12.34-4.42-3.56-3.2-5.34-7.24-5.34-12.16s1.59-8.9,4.79-11.98c3.19-3.07,7-4.61,11.42-4.61,1.96,0,3.87.13,5.71.37,1.84.25,3.62.5,5.34.74h.74c1.23,0,1.96-.43,2.21-1.29.24-.86,0-1.78-.74-2.76l-67.43-103.18c-1.23-1.96-2.71-2.08-4.42-.37l-41.64,38.69c-1.23,1.23-1.84,2.58-1.84,4.05v62.28c0,1.97.86,2.95,2.58,2.95,3.44,0,6.82-.18,10.13-.55,3.32-.37,6.45-.55,9.4-.55,4.42,0,8.23,1.54,11.42,4.61,3.19,3.07,4.79,6.94,4.79,11.61,0,4.92-1.78,8.96-5.34,12.16-3.56,3.19-7.8,4.66-12.71,4.42-6.88-.74-12.96-1.29-18.24-1.66-5.29-.37-10.38-.55-15.29-.55s-9.64.18-14.92.55c-5.29.37-11.49.92-18.61,1.66-4.67.24-8.79-1.23-12.34-4.42-3.56-3.2-5.34-7.24-5.34-12.16s1.78-8.96,5.34-12.16c3.56-3.19,7.67-4.54,12.34-4.05l10.32.74h.74c1.72,0,2.58-.98,2.58-2.95v-210.41c0-1.96-.86-2.95-2.58-2.95-2.46,0-4.61.18-6.45.55-1.84.37-3.75.55-5.71.55-4.67,0-8.54-1.59-11.61-4.79-3.07-3.19-4.61-7.12-4.61-11.79,0-4.91,1.72-9.03,5.16-12.34,3.44-3.32,7.61-4.73,12.53-4.24,7.12.74,13.32,1.29,18.61,1.66,5.28.37,10.25.55,14.92.55,4.91,0,10.01-.18,15.29-.55,5.28-.37,11.36-.92,18.24-1.66,4.91-.49,9.15.92,12.71,4.24,3.56,3.32,5.34,7.43,5.34,12.34s-1.79,8.97-5.34,12.16c-3.56,3.2-7.8,4.67-12.71,4.42-2.71-.49-5.53-.79-8.47-.92-2.95-.12-5.9-.31-8.84-.55h-.74c-1.72,0-2.58.98-2.58,2.95v98.02c0,1.47.43,2.4,1.29,2.76.86.37,1.78.06,2.76-.92l106.49-98.76c.74-.74,1.11-1.47,1.11-2.21,0-.98-.74-1.47-2.21-1.47-1.97,0-4.18.18-6.63.55-2.46.37-4.67.55-6.63.55-4.67,0-8.6-1.59-11.79-4.79-3.2-3.19-4.79-7.12-4.79-11.79,0-4.91,1.78-9.03,5.34-12.34,3.56-3.32,7.8-4.73,12.71-4.24,7.61.74,14.24,1.29,19.9,1.66,5.65.37,11.18.55,16.58.55s10.44-.18,15.85-.55c5.4-.37,11.54-.92,18.42-1.66,4.91-.49,9.09.92,12.53,4.24,3.44,3.32,5.16,7.43,5.16,12.34s-1.54,8.6-4.61,11.79c-3.08,3.2-6.94,4.79-11.61,4.79-.99,0-1.97-.06-2.95-.18-.98-.12-1.84-.18-2.58-.18h-1.11c-1.23,0-2.34.5-3.32,1.47l-87.7,80.33c-1.72,1.23-1.84,2.83-.37,4.79l82.91,127.5c.74,1.23,1.72,1.84,2.95,1.84,2.95,0,5.83-.18,8.66-.55,2.82-.37,5.46-.67,7.92-.92Z"/>
        <path class="c" d="M1246.89,1468.47c0,7.37-3.32,12.53-9.95,15.48-1.97.74-2.95,1.97-2.95,3.69v89.91c0,4.42-1.66,8.23-4.97,11.42-3.32,3.19-7.19,4.79-11.61,4.79s-8.23-1.6-11.42-4.79-4.79-7-4.79-11.42v-16.95c0-1.47-.37-2.4-1.11-2.76-.74-.37-1.72.06-2.95,1.29-9.09,9.34-20.27,17.38-33.53,24.14s-28.74,10.13-46.43,10.13c-19.9,0-37.71-3.75-53.43-11.24-15.72-7.49-29.05-17.75-39.98-30.77-10.93-13.02-19.29-27.88-25.06-44.59-5.77-16.7-8.66-34.27-8.66-52.69,0-22.11,3.81-41.82,11.42-59.14,7.61-17.32,17.81-32.06,30.58-44.22,12.77-12.16,27.14-21.43,43.11-27.82,15.97-6.38,32.3-9.58,49.01-9.58,13.02,0,25.92,2.09,38.69,6.26,12.77,4.18,24.56,10.57,35.38,19.16,13.51,10.57,20.27,21.5,20.27,32.8,0,7.37-2.52,13.45-7.55,18.24-5.04,4.79-10.87,7.19-17.5,7.19-7.37,0-13.33-2.58-17.87-7.74-4.55-5.16-6.82-10.93-6.82-17.32,0-2.95.61-6.02,1.84-9.21.24-.49.37-1.23.37-2.21s-.5-1.84-1.47-2.58c-7.13-4.66-14.68-8.11-22.66-10.32-7.99-2.21-16.03-3.32-24.14-3.32-12.04,0-23.83,2.39-35.38,7.19-11.55,4.79-21.99,11.85-31.32,21.19s-16.77,20.82-22.29,34.45c-5.53,13.63-8.29,29.29-8.29,46.98.24,20.88,4.24,39.37,11.98,55.46,7.74,16.09,18.48,28.74,32.24,37.96,13.75,9.21,29.48,13.82,47.17,13.82,37.83,0,65.59-17.44,83.28-52.33.74-1.47,1.11-2.82,1.11-4.05v-18.79c0-2.21-1.11-3.32-3.32-3.32-5.41-.24-10.87-.18-16.4.18-5.53.37-12.1,1.05-19.71,2.03-4.67.25-8.79-1.23-12.34-4.42-3.56-3.19-5.34-7.24-5.34-12.16s1.78-9.03,5.34-12.34c3.56-3.32,7.67-4.73,12.34-4.24,7.12.74,13.32,1.29,18.61,1.66,5.28.37,10.25.55,14.92.55,4.91,0,10.07-.18,15.48-.55,5.4-.37,11.54-.92,18.42-1.66,4.91-.49,9.08.92,12.53,4.24,3.44,3.32,5.16,7.43,5.16,12.34Z"/>
        <path class="c" d="M937.95,1207.57c4.66,0,8.6,1.54,11.79,4.61,3.19,3.07,4.79,7.06,4.79,11.98s-1.79,8.96-5.34,12.16c-3.56,3.19-7.8,4.66-12.71,4.42-14-1.47-25.18-2.21-33.53-2.21-9.09,0-20.27.74-33.53,2.21-4.92.24-9.09-1.23-12.53-4.42-3.44-3.2-5.16-7.24-5.16-12.16s1.53-8.9,4.61-11.98c3.07-3.07,6.94-4.61,11.61-4.61,2.21,0,4.61.13,7.19.37,2.58.25,5.1.62,7.55,1.11,2.95,0,3.81-1.23,2.58-3.68l-17.32-38.69c-.74-1.72-1.97-2.58-3.68-2.58h-127.5c-1.47,0-2.71.86-3.68,2.58l-17.32,38.69c-.25.5-.37.98-.37,1.47,0,1.47.98,2.21,2.95,2.21,2.7-.49,5.28-.86,7.74-1.11,2.45-.24,4.79-.37,7-.37,4.66,0,8.53,1.54,11.61,4.61,3.07,3.07,4.61,7.06,4.61,11.98s-1.72,8.96-5.16,12.16c-3.44,3.19-7.62,4.66-12.53,4.42-14.25-1.47-25.43-2.21-33.53-2.21-9.34,0-20.51.74-33.53,2.21-4.92.24-9.15-1.23-12.71-4.42-3.56-3.2-5.34-7.24-5.34-12.16s1.6-8.9,4.79-11.98c3.19-3.07,7.12-4.61,11.79-4.61,2.45,0,4.79.13,7,.37,2.21.25,4.42.5,6.63.74h.74c1.23,0,2.33-.74,3.32-2.21l106.86-237.68c2.45-5.65,6.75-8.48,12.9-8.48s10.07,2.83,12.53,8.48l107.6,237.68c.98,1.47,2.08,2.21,3.32,2.21,2.45,0,4.85-.18,7.19-.55,2.33-.37,4.61-.55,6.82-.55ZM802.71,1021.48c-.25-1.47-.98-2.21-2.21-2.21-.74,0-1.47.74-2.21,2.21l-48.27,107.6c-.25.5-.37.98-.37,1.47,0,1.72.98,2.58,2.95,2.58h95.81c2.95,0,3.81-1.35,2.58-4.05l-48.27-107.6Z"/>
        <path class="c" d="M882.68,1517.11c5.16,0,9.45,1.79,12.9,5.34,3.44,3.56,4.91,7.8,4.42,12.71l-2.21,30.95c-.25,6.88-2.83,12.66-7.74,17.32-4.92,4.66-10.69,7-17.32,7h-130.45c-4.42,0-9.03.37-13.82,1.11-4.79.74-9.4,1.35-13.82,1.84-5.16.74-9.71-.62-13.63-4.05-3.93-3.44-5.9-7.86-5.9-13.27s1.96-9.76,5.9-13.08c3.93-3.32,8.48-4.61,13.63-3.87.74.25,1.59.37,2.58.37s2.08.13,3.32.37h.74c1.96,0,2.95-.98,2.95-2.95v-207.09c0-2.21-.98-3.32-2.95-3.32-.98,0-2.03.18-3.13.55-1.11.37-2.27.68-3.5.92-5.16.74-9.71-.55-13.63-3.87-3.93-3.32-5.9-7.68-5.9-13.08s1.96-9.82,5.9-13.27c3.93-3.44,8.48-4.79,13.63-4.05,4.91.5,9.95,1.11,15.11,1.84s10.07,1.11,14.74,1.11h128.24c6.63,0,12.4,2.34,17.32,7,4.91,4.67,7.49,10.45,7.74,17.32l2.21,30.95c.49,4.67-.98,8.84-4.42,12.53-3.44,3.68-7.74,5.53-12.9,5.53s-9.03-1.66-12.34-4.97-4.97-7.31-4.97-11.98c0-2.95.18-6.2.55-9.77.37-3.56.67-7.06.92-10.5,0-2.21-1.11-3.32-3.32-3.32h-102.81c-2.21,0-3.32,1.11-3.32,3.32v75.91c0,2.21,1.11,3.32,3.32,3.32h90.28c4.42,0,8.23,1.6,11.42,4.79,3.19,3.2,4.79,7,4.79,11.42s-1.6,8.17-4.79,11.24c-3.2,3.07-7,4.61-11.42,4.61h-90.28c-2.21,0-3.32,1.11-3.32,3.32v86.96c0,2.21,1.11,3.32,3.32,3.32h102.81c2.21,0,3.32-1.11,3.32-3.32-.25-3.68-.55-7.19-.92-10.5s-.55-6.57-.55-9.76c0-4.66,1.66-8.66,4.97-11.98s7.43-4.97,12.34-4.97Z"/>
        <path class="c" d="M598.97,1207.57c4.91-.49,9.15.92,12.71,4.24,3.56,3.32,5.34,7.43,5.34,12.34s-1.78,8.96-5.34,12.16c-3.56,3.19-7.8,4.66-12.71,4.42-7.37-.74-13.88-1.29-19.53-1.66-5.65-.37-11.18-.55-16.58-.55s-10.44.18-15.85.55c-5.41.37-11.67.92-18.79,1.66-4.67.24-8.79-1.23-12.34-4.42-3.56-3.2-5.34-7.24-5.34-12.16s1.59-8.9,4.79-11.98c3.19-3.07,7-4.61,11.42-4.61,1.96,0,3.87.13,5.71.37,1.84.25,3.62.5,5.34.74h.74c1.23,0,1.96-.43,2.21-1.29.24-.86,0-1.78-.74-2.76l-67.43-103.18c-1.23-1.96-2.71-2.08-4.42-.37l-41.64,38.69c-1.23,1.23-1.84,2.58-1.84,4.05v62.28c0,1.97.86,2.95,2.58,2.95,3.44,0,6.82-.18,10.13-.55,3.32-.37,6.45-.55,9.4-.55,4.42,0,8.23,1.54,11.42,4.61,3.19,3.07,4.79,6.94,4.79,11.61,0,4.92-1.78,8.96-5.34,12.16-3.56,3.19-7.8,4.66-12.71,4.42-6.88-.74-12.96-1.29-18.24-1.66-5.29-.37-10.38-.55-15.29-.55s-9.64.18-14.92.55c-5.29.37-11.49.92-18.61,1.66-4.67.24-8.79-1.23-12.34-4.42-3.56-3.2-5.34-7.24-5.34-12.16s1.78-8.96,5.34-12.16c3.56-3.19,7.67-4.54,12.34-4.05l10.32.74h.74c1.72,0,2.58-.98,2.58-2.95v-210.41c0-1.96-.86-2.95-2.58-2.95-2.46,0-4.61.18-6.45.55-1.84.37-3.75.55-5.71.55-4.67,0-8.54-1.59-11.61-4.79-3.07-3.19-4.61-7.12-4.61-11.79,0-4.91,1.72-9.03,5.16-12.34,3.44-3.32,7.61-4.73,12.53-4.24,7.12.74,13.32,1.29,18.61,1.66,5.28.37,10.25.55,14.92.55,4.91,0,10.01-.18,15.29-.55,5.28-.37,11.36-.92,18.24-1.66,4.91-.49,9.15.92,12.71,4.24,3.56,3.32,5.34,7.43,5.34,12.34s-1.79,8.97-5.34,12.16c-3.56,3.2-7.8,4.67-12.71,4.42-2.71-.49-5.53-.79-8.47-.92-2.95-.12-5.9-.31-8.84-.55h-.74c-1.72,0-2.58.98-2.58,2.95v98.02c0,1.47.43,2.4,1.29,2.76.86.37,1.78.06,2.76-.92l106.49-98.76c.74-.74,1.11-1.47,1.11-2.21,0-.98-.74-1.47-2.21-1.47-1.97,0-4.18.18-6.63.55-2.46.37-4.67.55-6.63.55-4.67,0-8.6-1.59-11.79-4.79-3.2-3.19-4.79-7.12-4.79-11.79,0-4.91,1.78-9.03,5.34-12.34,3.56-3.32,7.8-4.73,12.71-4.24,7.61.74,14.24,1.29,19.9,1.66,5.65.37,11.18.55,16.58.55s10.44-.18,15.85-.55c5.4-.37,11.54-.92,18.42-1.66,4.91-.49,9.09.92,12.53,4.24,3.44,3.32,5.16,7.43,5.16,12.34s-1.54,8.6-4.61,11.79c-3.08,3.2-6.94,4.79-11.61,4.79-.99,0-1.97-.06-2.95-.18-.98-.12-1.84-.18-2.58-.18h-1.11c-1.23,0-2.34.5-3.32,1.47l-87.7,80.33c-1.72,1.23-1.84,2.83-.37,4.79l82.91,127.5c.74,1.23,1.72,1.84,2.95,1.84,2.95,0,5.83-.18,8.66-.55,2.82-.37,5.46-.67,7.92-.92Z"/>
        <path class="c" d="M596.39,1560.59c4.91-.49,9.15.92,12.71,4.24,3.56,3.32,5.34,7.43,5.34,12.34s-1.79,8.96-5.34,12.16c-3.56,3.19-7.8,4.66-12.71,4.42-.99-.25-4.92-.74-11.79-1.47-6.88-.74-13.51-1.11-19.9-1.11-10.57,0-18.67-4.42-24.32-13.27l-61.17-93.23c-.74-1.47-2.09-2.21-4.05-2.21h-44.22c-2.21,0-3.32,1.11-3.32,3.32v73.33c0,1.97.86,2.95,2.58,2.95,3.19,0,6.26-.18,9.21-.55s5.9-.67,8.84-.92c4.91-.49,9.09.92,12.53,4.24,3.44,3.32,5.16,7.43,5.16,12.34s-1.72,8.96-5.16,12.16c-3.44,3.19-7.62,4.66-12.53,4.42-6.88-.74-12.96-1.29-18.24-1.66-5.29-.37-10.38-.55-15.29-.55s-9.95.18-15.11.55c-5.16.37-11.3.92-18.42,1.66-4.92.24-9.16-1.23-12.71-4.42-3.56-3.2-5.34-7.24-5.34-12.16s1.6-8.9,4.79-11.98c3.19-3.07,7.12-4.61,11.79-4.61,1.72,0,3.5.13,5.34.37,1.84.25,3.87.5,6.08.74h.74c1.72,0,2.58-.98,2.58-2.95v-208.94c0-2.45-1.11-3.44-3.32-2.95l-8.84.74c-4.92.74-9.34-.55-13.27-3.87-3.93-3.32-5.9-7.55-5.9-12.71s1.9-9.77,5.71-13.08c3.81-3.32,8.29-4.73,13.45-4.24,4.91.74,10.01,1.42,15.29,2.03,5.28.62,10.38.92,15.29.92l67.43.37c32.18.25,57.3,7.55,75.36,21.92,18.06,14.37,27.08,34.58,27.08,60.62,0,20.39-5.59,37.4-16.77,51.04-11.18,13.63-26.96,22.91-47.35,27.82-2.71.5-3.32,1.84-1.84,4.05l50.85,78.12c.74,1.47,2.21,2.21,4.42,2.21,8.6-.49,16.7-1.23,24.32-2.21ZM484.37,1348.71h-53.43c-2.21,0-3.32,1.11-3.32,3.32v94.7c0,2.21,1.11,3.32,3.32,3.32h53.43c44.46,0,66.7-16.82,66.7-50.48s-22.24-50.85-66.7-50.85Z"/>
        </g>
    </g>
</svg>